<?xml version="1.0" encoding="UTF-8" standalone="no"?><!DOCTYPE svg PUBLIC "-//W3C//DTD SVG 1.1//EN" "http://www.w3.org/Graphics/SVG/1.1/DTD/svg11.dtd"><svg width="100%" height="100%" viewBox="0 0 2900 2900" version="1.1" xmlns="http://www.w3.org/2000/svg" xmlns:xlink="http://www.w3.org/1999/xlink" xml:space="preserve" xmlns:serif="http://www.serif.com/" style="fill-rule:evenodd;clip-rule:evenodd;stroke-linejoin:round;stroke-miterlimit:2;"><path d="M2899.3,348.875c0,-192.55 -156.325,-348.875 -348.875,-348.875l-2201.55,0c-192.55,0 -348.875,156.325 -348.875,348.875l-0,2201.55c-0,192.55 156.325,348.875 348.875,348.875l2201.55,0c192.55,0 348.875,-156.325 348.875,-348.875l0,-2201.55Z" style="fill:#134e4a;"/><path d="M1276.42,2027.87c-357.742,187.279 -730.138,345.467 -1144.79,458.404c462.709,-560 973.913,-1092.62 1561.25,-1594.38c-28.675,12.483 -58.162,24.162 -85.812,37.662c-31.1,15.179 -60.725,31.838 -90.679,48.129c-149.913,81.542 -300.65,162.496 -462.85,231.921c-91.896,39.329 -155.55,20.95 -171.509,-53.025c-23.866,-110.65 -8.591,-221.491 27.992,-330.291c12.779,-38 56.275,-62.059 99.542,-84.309c205.304,-105.579 420.833,-200.183 641.266,-289.616c68.246,-27.692 145.13,-36.175 219.192,-37.196c270.2,-3.729 540.571,-1.542 810.875,-1.071c13.829,0.025 27.642,4.842 68.263,12.437c-308.85,245.217 -607.055,481.984 -905.263,718.75c353.229,-64.483 628.058,-220.591 923.767,-352.062c-259.704,205.771 -596.229,329.608 -965.121,433.317c215.967,182.691 90.004,336.641 -66.342,485.779c-126.521,120.687 -289.362,217.104 -459.779,315.554m-309,-191.934c-220.442,180.284 -440.883,360.563 -661.325,540.846c506.496,-168.058 977.417,-367.187 1343.52,-666.779c86.637,-70.896 161.158,-147.021 195.779,-238.925c36.15,-95.946 -12.846,-169.967 -150.071,-214.633c-237.854,189.466 -477.429,380.296 -727.9,579.491m52.75,-665.92c437.554,-222.85 891.167,-431.546 1314.25,-698.317c-53.787,-9.117 -71.437,-14.8 -89.025,-14.7c-566.225,3.117 -483.875,-40.975 -838.866,248.262c-148.167,120.721 -288.009,246.505 -402.642,384.13c-17.8,21.37 -97.408,58.062 16.279,80.625Z" style="fill:#e5e7eb;fill-rule:nonzero;"/></svg>