<?xml version="1.0" encoding="UTF-8" standalone="no"?><!DOCTYPE svg PUBLIC "-//W3C//DTD SVG 1.1//EN" "http://www.w3.org/Graphics/SVG/1.1/DTD/svg11.dtd"><svg width="100%" height="100%" viewBox="0 0 3289 928" version="1.1" xmlns="http://www.w3.org/2000/svg" xmlns:xlink="http://www.w3.org/1999/xlink" xml:space="preserve" xmlns:serif="http://www.serif.com/" style="fill-rule:evenodd;clip-rule:evenodd;stroke-linejoin:round;stroke-miterlimit:2;"><g><path d="M2631.58,513.471c-54.401,-17.418 -80.483,-56.335 -91.068,-108.322c-3.451,-16.949 -7.059,-33.931 -11.884,-50.523c-8.198,-28.192 -27.269,-44.908 -56.724,-47.559c-49.707,-4.474 -99.436,-9.857 -149.267,-11.504c-58.257,-1.925 -116.651,0.632 -174.951,-0.526c-28.634,-0.568 -44.958,9.716 -56.119,37.194c-32.111,79.059 -66.82,157.068 -100.959,235.293c-13.407,30.72 -34.609,34.735 -60.278,12.75c-14.01,-11.999 -16.946,-25.226 -9.021,-42.511c22.556,-49.201 44.151,-98.843 66.014,-148.36c3.339,-7.562 6.097,-15.381 11.592,-29.362c-24.352,16.885 -43.766,30.259 -63.09,43.764c-33.178,23.187 -67.177,44.35 -108.584,49.782c-49.357,6.476 -87.226,-9.61 -110.822,-54.871c-1.277,-2.45 -2.672,-4.86 -4.254,-7.119c-0.753,-1.074 -2.077,-1.749 -4.664,-3.828c-11.203,9.344 -22.404,19.393 -34.329,28.493c-30.133,22.995 -62.815,40.453 -100.816,47.085c-23.124,4.035 -44.484,0.116 -63.967,-11.874c-48.473,-29.832 -74.007,-73.605 -76.778,-130.541c-0.264,-5.44 -0.506,-10.881 -0.853,-18.373c-17.803,7.186 -29.036,20.689 -42.124,31.196c-65.774,52.809 -135.892,98.919 -221.532,107.737c-42.571,4.383 -86.638,-3.274 -130.064,-4.91c-23.65,-0.891 -44.174,-16.362 -57.809,-37.111c-6.871,-10.455 -13.006,-12.901 -25.498,-8.019c-57.555,22.493 -104.203,6.68 -138.108,-45.261c-26.436,-40.499 -26.395,-40.437 -67.507,-13.405c-34.202,22.488 -65.663,49.092 -101.928,68.456c-34.005,18.158 -69.198,28.613 -107.805,15.047c-30.966,-10.882 -43.236,-27.504 -43.831,-60.511c-0.459,-25.398 8.163,-50.53 2.416,-78.058c-18.611,13.104 -32.228,29.54 -46.67,44.931c-136.952,145.951 -225.925,318.093 -278.185,510.269c-6.549,24.083 -14.738,47.725 -21.057,71.863c-5.174,19.76 -17.068,25.543 -35.799,20.663c-6.025,-1.569 -12.224,-2.637 -18.064,-4.716c-22.826,-8.127 -25.801,-13.649 -18.196,-36.992c48.984,-150.347 93.538,-301.978 132.617,-455.208c1.861,-7.3 5.334,-14.305 3.66,-23.697c-25.197,2.997 -50.35,6.163 -75.546,8.939c-29.831,3.286 -59.555,4.574 -88.315,-6.745c-55.687,-21.918 -67.9,-71.65 -27.912,-115.535c32.538,-35.709 75.078,-50.697 121.537,-57.641c32.704,-4.887 64.938,-3.079 97.135,3.62c5.302,1.103 12.482,3.333 15.866,-1.454c13.206,-18.681 26.379,-9.798 38.916,-0.393c15.247,11.439 30.416,23.938 22.301,46.541c-10.482,29.195 -12.538,60.735 -27.531,88.92c-7.871,14.797 -9.526,32.902 -15.337,54.531c40.36,-49.554 77.224,-95.162 114.483,-140.445c26.051,-31.662 57.128,-54.755 100.442,-55.231c54.653,-0.601 79.922,25.132 81.131,79.391c0.502,22.539 -6.908,44.792 -3.441,69.229c21.909,-6.856 37.294,-19.945 53.792,-30.881c34.111,-22.611 66.742,-47.699 104.943,-63.439c61.694,-25.42 104.63,-12.161 141.694,43.264c25.554,38.212 25.785,38.479 60.644,8.294c17.82,-15.431 34.365,-32.325 51.966,-48.02c46.606,-41.561 136.127,-14.587 162.498,24.985c10.349,15.53 14.58,32.421 11.841,51.351c-3.512,24.27 7.662,36.388 32.411,36.84c20.085,0.367 37.909,-7.451 55.676,-15.414c62.553,-28.036 111.487,-74.609 162.601,-118.444c22.112,-18.963 37.147,-40.689 48.384,-67.949c26.808,-65.037 66.883,-121.677 122.955,-165.228c44.262,-34.377 94.265,-42.302 147.517,-24.737c38.594,12.73 49.797,38.931 34.422,76.814c-10.552,25.998 -30.052,44.737 -50.927,62.197c-43.842,36.669 -92.951,65.555 -141.505,95.27c-19.533,11.954 -38.569,24.717 -57.943,36.934c-10.006,6.31 -15.291,15.009 -17.81,26.72c-6.305,29.317 -7.575,58.774 18.552,78.139c23.827,17.659 50.746,7.843 75.202,-3.245c22.29,-10.107 41.904,-24.644 59.378,-41.746c15.375,-15.047 30.334,-30.542 45.021,-46.264c23.126,-24.754 39.686,-30.658 59.427,-20.37c21.214,11.056 32.491,39.404 26.326,66.871c-1.361,6.064 -3.632,11.927 -5.548,17.862c-7.891,24.445 -0.161,33.374 25.715,28.513c53.44,-10.039 96.541,-40.518 141.1,-71.726c-10.535,-4.93 -19.522,-1.865 -28.554,-0.674c-13.922,1.836 -27.94,2.82 -39.775,-6.936c-13.485,-11.116 -19.308,-25.703 -15.238,-42.68c4.148,-17.307 19.019,-21.081 34.013,-22.081c49.132,-3.277 98.283,-6.548 147.48,-8.408c14.764,-0.558 22.746,-5.049 27.335,-19.341c6.356,-19.792 14.553,-38.978 26.357,-56.42c14.584,-21.551 33.905,-36.486 59.036,-43.512c25.881,-7.236 37.978,4.197 31.024,30.41c-5.376,20.261 -16.646,38.07 -27.143,56.059c-5.582,9.566 -11.388,19.001 -17.243,28.744c5.686,6.904 13.047,3.694 19.322,3.66c102.716,-0.566 205.462,-2.293 307.847,8.589c20.679,2.198 41.222,5.363 61.163,11.783c37.094,11.944 61.71,36.123 73.267,73.443c1.637,5.284 3.334,10.549 5.089,15.794c0.124,0.37 0.965,0.501 1.473,0.743c44.754,-74.332 138.376,-85.317 205.914,-24.156c3.751,0.036 3.966,-3.124 4.955,-5.541c2.943,-7.188 -1.329,-18.782 9.731,-20.818c10.105,-1.861 15.983,6.955 21.781,13.755c14.104,16.542 16.672,25.415 18.889,62.677c58.494,-11.213 92.967,19.244 115.718,68.446c19.113,41.333 47.812,50.964 103.931,39.07c55.504,-11.764 99.857,-43.737 136.214,-86.915c18.499,-21.969 33.496,-24.342 53.089,-8.456c18.784,15.23 21.279,37.204 4.669,56.68c-53.772,63.055 -119.313,106.508 -203.983,112.375c-57.302,3.97 -119.961,-18.502 -150.215,-80.702c-0.607,-1.248 -1.105,-2.561 -1.822,-3.741c-6.656,-10.945 -9.314,-28.085 -24.751,-27.947c-15.254,0.137 -21.665,15.588 -28.67,27.478c-9.706,16.476 -14.058,34.734 -15.56,53.548c-1.278,16.018 -9.908,21.041 -24.902,20.679c-36.148,-0.873 -50.067,-18.855 -43.569,-61.66c-47.041,31.514 -95.451,50.394 -152.627,34.375m-971.604,-478.6c-55.437,45.618 -99.841,99.567 -126.897,167.112c43.113,-25.571 87.062,-49.013 123.363,-83.529c17.295,-16.444 30.432,-35.763 36.416,-59.339c2.618,-10.314 0.243,-19.395 -7.271,-26.608c-7.59,-7.285 -15.439,-2.655 -25.611,2.364m1045.01,420.745c20.721,-6.725 36.51,-19.517 46.164,-39.076c16.892,-34.225 -4.668,-71.383 -42.564,-73.897c-21.878,-1.452 -38.549,11.259 -36.518,32.103c2.869,29.456 -5.845,49.944 -38.588,59.313c21.596,20.269 42.599,28.543 71.506,21.557m-2558.45,-101.007c18.339,-3.309 36.89,-5.744 54.963,-10.144c24.032,-5.851 36.608,-22.62 40.82,-46.32c-12.001,-9.315 -25.866,-8.814 -38.491,-9.93c-47.132,-4.167 -89.288,7.298 -121.649,44.312c-4.446,5.085 -9.866,11.168 -6.797,18.474c3.097,7.374 11.041,7.14 17.959,7.739c16.724,1.45 33.098,-1.415 53.195,-4.131m930.029,9.485c5.833,-6.597 7.457,-15.094 8.421,-23.137c1.611,-13.448 0.319,-29.065 -13.081,-34.355c-11.932,-4.711 -15.419,10.815 -21.81,18.295c-2.688,3.147 -5.226,6.576 -7.071,10.258c-4.6,9.175 -11.686,18.975 -2.248,28.576c9.88,10.052 21.588,11.884 35.789,0.363Z" style="fill-rule:nonzero;"/><path d="M1739.93,209.758c2.868,-25.864 17.286,-39.426 36.867,-36.506c19.043,2.84 30.867,19.146 28.318,39.054c-2.257,17.636 -19.172,30.744 -37.185,28.003c-16.266,-2.476 -25.691,-12.341 -28,-30.551Z" style="fill-rule:nonzero;"/></g></svg>