<?xml version="1.0" encoding="UTF-8" standalone="no"?><!DOCTYPE svg PUBLIC "-//W3C//DTD SVG 1.1//EN" "http://www.w3.org/Graphics/SVG/1.1/DTD/svg11.dtd"><svg width="100%" height="100%" viewBox="0 0 84 84" version="1.1" xmlns="http://www.w3.org/2000/svg" xmlns:xlink="http://www.w3.org/1999/xlink" xml:space="preserve" xmlns:serif="http://www.serif.com/" style="fill-rule:evenodd;clip-rule:evenodd;stroke-linejoin:round;stroke-miterlimit:2;"><path d="M83.333,16.266c0,-8.977 -7.288,-16.266 -16.266,-16.266l-50.801,0c-8.977,0 -16.266,7.289 -16.266,16.266l0,50.801c0,8.978 7.289,16.266 16.266,16.266l50.801,0c8.978,0 16.266,-7.288 16.266,-16.266l0,-50.801Zm-21.716,43.551l-20.6,-0c-2.767,-0 -5.325,-0.425 -7.675,-1.275c-2.35,-0.85 -4.384,-2.067 -6.1,-3.65c-1.717,-1.584 -3.067,-3.517 -4.05,-5.8c-0.984,-2.284 -1.475,-4.859 -1.475,-7.725c-0,-2.6 0.491,-4.992 1.475,-7.175c0.983,-2.184 2.325,-4.067 4.025,-5.65c1.7,-1.584 3.675,-2.817 5.925,-3.7c2.25,-0.884 4.641,-1.325 7.175,-1.325c2.533,-0 4.925,0.441 7.175,1.325c2.25,0.883 4.225,2.116 5.925,3.7c1.7,1.583 3.041,3.466 4.025,5.65c0.983,2.183 1.475,4.575 1.475,7.175c-0,1.866 -0.225,3.508 -0.675,4.925c-0.45,1.416 -1.042,2.666 -1.775,3.75c-0.734,1.083 -1.542,1.991 -2.425,2.725c-0.884,0.733 -1.742,1.35 -2.575,1.85l-0,0.1l10.15,-0l-0,5.1Zm-21.45,-30.6c-1.7,-0 -3.275,0.308 -4.725,0.925c-1.45,0.616 -2.7,1.475 -3.75,2.575c-1.05,1.1 -1.875,2.4 -2.475,3.9c-0.6,1.5 -0.9,3.133 -0.9,4.9c-0,1.8 0.3,3.475 0.9,5.025c0.6,1.55 1.433,2.883 2.5,4c1.066,1.116 2.325,1.991 3.775,2.625c1.45,0.633 3.041,0.95 4.775,0.95c1.733,-0 3.341,-0.317 4.825,-0.95c1.483,-0.634 2.758,-1.509 3.825,-2.625c1.066,-1.117 1.9,-2.45 2.5,-4c0.6,-1.55 0.9,-3.225 0.9,-5.025c-0,-1.767 -0.3,-3.4 -0.9,-4.9c-0.6,-1.5 -1.434,-2.8 -2.5,-3.9c-1.067,-1.1 -2.342,-1.959 -3.825,-2.575c-1.484,-0.617 -3.125,-0.925 -4.925,-0.925Z" style="fill:#0e0e10;"/></svg>